<?xml version="1.0" standalone="no"?>
<!DOCTYPE svg PUBLIC "-//W3C//DTD SVG 20010904//EN"
 "http://www.w3.org/TR/2001/REC-SVG-20010904/DTD/svg10.dtd">
<svg version="1.0" xmlns="http://www.w3.org/2000/svg"
 width="1000.000000pt" height="1000.000000pt" viewBox="0 0 1000.000000 1000.000000"
 preserveAspectRatio="xMidYMid meet">
<metadata>
Created by potrace 1.11, written by Peter Selinger 2001-2013
</metadata>
<g transform="translate(0.000000,1000.000000) scale(0.100000,-0.100000)"
fill="#000000" stroke="none">
<path d="M8814 8643 c-32 -37 -111 -124 -174 -193 -63 -69 -198 -218 -300
-330 -102 -112 -235 -258 -296 -324 -60 -67 -128 -141 -150 -166 -21 -24 -70
-78 -109 -120 -38 -41 -108 -118 -155 -170 -47 -52 -114 -126 -150 -165 -36
-38 -103 -113 -150 -165 -47 -52 -114 -126 -150 -165 -36 -38 -103 -113 -150
-165 -47 -52 -114 -126 -150 -165 -36 -38 -103 -113 -150 -165 -47 -52 -114
-126 -150 -165 -36 -39 -105 -115 -155 -170 -49 -55 -117 -129 -150 -165 -33
-36 -100 -110 -150 -165 -49 -55 -120 -131 -156 -170 -37 -38 -116 -124 -175
-191 -131 -146 -400 -442 -630 -693 -93 -102 -173 -186 -179 -187 -5 -1 -39
30 -75 70 -36 39 -108 119 -160 176 -52 58 -122 134 -156 170 -33 36 -107 117
-164 180 -57 63 -146 162 -199 220 -53 58 -181 200 -286 315 -104 115 -224
246 -265 290 -41 44 -115 125 -165 180 -49 55 -117 129 -150 165 -33 36 -100
110 -150 165 -49 55 -119 132 -155 171 -36 38 -103 113 -150 165 -47 51 -114
126 -150 164 -36 39 -103 113 -150 165 -47 52 -114 127 -150 165 -36 39 -103
113 -150 165 -47 52 -114 127 -150 165 -36 39 -83 91 -105 115 -100 112 -320
355 -425 470 -388 425 -486 533 -493 546 -4 8 -12 14 -17 14 -6 0 -10 -435
-10 -1163 l0 -1163 136 -150 c76 -82 203 -221 283 -309 80 -88 164 -180 186
-204 22 -24 45 -49 50 -55 6 -7 37 -41 70 -76 33 -36 101 -110 150 -165 50
-54 142 -156 205 -225 63 -69 198 -217 300 -330 102 -112 235 -258 296 -324
60 -67 128 -141 150 -166 21 -24 73 -81 114 -125 41 -44 116 -125 165 -180 50
-55 117 -129 150 -165 33 -36 101 -110 150 -165 50 -55 117 -129 150 -165 33
-36 101 -110 150 -165 50 -55 119 -131 155 -170 36 -39 103 -113 150 -165 47
-52 114 -127 150 -165 36 -39 103 -113 150 -165 47 -52 112 -124 145 -160 34
-36 103 -112 155 -170 52 -58 122 -134 156 -170 34 -36 72 -77 85 -92 l24 -27
75 82 c41 46 113 125 160 177 47 52 114 126 150 165 36 38 103 113 150 165 47
52 114 126 150 165 36 39 106 115 155 170 50 55 117 129 150 165 33 36 101
110 150 165 50 55 117 129 150 165 33 36 101 110 150 165 50 55 117 129 150
165 33 36 101 110 150 165 50 55 122 134 160 175 39 42 88 96 110 120 41 46
252 278 455 500 63 69 153 168 200 220 47 52 116 128 154 170 109 118 158 171
205 225 25 28 74 82 110 120 36 39 102 111 146 160 44 50 107 119 140 155 33
35 65 69 70 76 81 92 283 313 296 324 3 3 31 34 62 69 l57 64 0 1158 c0 641
-4 1159 -9 1159 -4 0 -35 -30 -67 -67z"/>
<path d="M1110 3471 l0 -2181 840 0 840 0 0 1262 0 1261 -62 66 c-35 37 -101
109 -148 161 -47 52 -112 124 -145 160 -34 36 -103 112 -155 170 -52 58 -144
159 -205 225 -204 224 -410 450 -450 495 -22 24 -67 74 -101 110 -33 36 -105
115 -159 175 -54 61 -134 148 -177 194 l-78 84 0 -2182z"/>
<path d="M8794 5553 c-49 -54 -135 -147 -189 -208 -54 -60 -126 -139 -159
-175 -34 -36 -97 -105 -141 -155 -44 -49 -181 -200 -305 -335 -257 -281 -443
-486 -648 -712 l-142 -157 0 -1260 0 -1261 838 0 837 0 4 2180 c2 1199 2 2180
0 2180 -3 0 -45 -44 -95 -97z"/>
</g>
</svg>
